<?xml version="1.0" encoding="UTF-8"?>
<svg id="Layer_1" data-name="Layer 1" xmlns="http://www.w3.org/2000/svg" viewBox="0 0 409.76 401.07">
  <defs>
    <style>
      .cls-1 {
        fill: #48b6de;
      }

      .cls-2 {
        fill: #1b2a55;
      }
    </style>
  </defs>
  <path class="cls-2" d="M208.29,0l11.89.93c99.29,9.63,175.52,85.44,188.6,183.74l.97,10.62v26.88l-1.59,15.87c-13.33,83.79-84.57,150.84-168.56,161.14l-18.65,1.9h-21.01l-18.34-1.9C89.4,387.03,12.45,308.62,1.58,216.45L.03,196.52c.07-2.57-.1-5.16,0-7.72,1.98-51.66,18.92-94.2,52.23-133.32,1.46-1.72,12.43-14.21,13.39-14.04l40.83,54.04L180.02,1.24c.97-.78,7.93-.83,9.6-.92.4-.02.71-.32.75-.32h17.92ZM341.47,310.23c20.17-21.58,32.98-49.27,39.15-78.12,21.66-101.36-44.94-197.6-143.64-221.09-11.56-2.75-23.54-5.02-35.48-4.85v251.68l-35.84-.46V80.65l-60.1,75.7-50.37-65.19c-.6-.14-.39.17-.54.39-3.6,5.02-7.29,12.85-9.86,18.56-28.71,63.68-18.95,131.55,23.55,186.06,39.93,51.21,99.75,79.3,165.41,71.51,38.74-4.6,74.53-23.41,101.85-50.79-.9-.17-1.72.38-2.63.46-3.36.29-6.95-.51-9.42-2.93-.53-.52-2.7-3.48-2.75-4.07-.06-.73,4.5-3.02,5.35-3.51,1.17,4.46,9.76,6.51,8.81.5-.34-2.14-7.55-7.13-9.41-9.13-9.18-9.88,3.06-20.38,12.49-13.11.48.37,2.44,2.2,2.65,2.6.58,1.07-.25.86-.78,1.37-1.16,1.12-2.32,2.21-3.56,3.26h-.45c-.91-2.07-3.93-4.37-6.17-2.92-1.8,1.17-.89,2.79.29,4.01,2.57,2.66,11.44,8.6,11.44,12.35v4.48Z"/>
  <path class="cls-1" d="M292.96,257.7v-77.71c0-.29-3.07-3.97-3.55-4.48-3.98-4.19-9.15-7.38-14.06-10.35v-40.17c0-.26.75-.55,1.07-.48,27.79.9,54.28-4.83,78.13,12.74,20.55,15.14,25.31,46.65,22.11,70.5-3.63,27.01-23.32,47.4-50.77,49.96h-32.92ZM301.92,231.13h24.87c5.2,0,13.71-5.99,17-9.88,13.41-15.88,12.08-54.27-7.26-65.36-10.05-5.76-23.23-6.78-34.61-6.64v81.88Z"/>
  <polygon class="cls-1" points="137.22 182 95.52 246.27 57.35 188.18 56.88 207.64 36.84 203.59 36.87 168.63 53.33 136.58 95.52 207.33 139.85 136.58 158.55 170.41 158.55 257.7 137.22 257.7 137.22 182"/>
  <path class="cls-1" d="M284.31,257.7h-18.85v-57.94c0-.26-.55-1.97-.69-2.4-3.67-10.93-21.09-12.67-29.29-5.95-2.13,1.75-6.79,7.84-6.79,10.51v55.77h-18.69s-.46-.43-.46-.46v-85.28c0-.26.75-.55,1.07-.48l18.4-.29v8.34c4.28-3.35,8.66-6.31,13.98-7.81,11.11-3.13,27.25.05,34.83,9.21,2.84,3.43,6.5,11.66,6.5,16.06v60.72Z"/>
  <path class="cls-2" d="M133.83,315.17h-7.26c-1.11-1.04-2.42-7.32-3.45-7.68h-14.9s-2.82,7.68-2.82,7.68h-7.72l14.4-37.72c1.32.26,7.09-.41,7.7.32l14.05,37.39ZM111.27,300.03h9.27l-4.79-11.74-4.48,11.74Z"/>
  <path class="cls-2" d="M243.67,283.35c.22.04.61.34.78.54,4.37,6.75,8.53,13.67,13.28,20.16v-20.24s.43-.46.46-.46h5.87s.46.43.46.46v32.6h-6.33l-13.75-20.7v20.7h-6.49v-32.6s.43-.46.46-.46c1.49,0,3.92-.23,5.25,0Z"/>
  <path class="cls-2" d="M186.29,282.82c22.12-2.66,26.74,29.14,7.11,33.99-24.63,6.09-29.87-31.26-7.11-33.99ZM186.59,289.3c-10.93,1.58-11.12,19.65-.32,21.48,17.19,2.9,17.34-23.94.32-21.48Z"/>
  <path class="cls-2" d="M233.01,316.41h-7.11l-7.42-13.6v13.6h-6.49v-33.06c2.31.08,4.64-.11,6.95,0,2.81.14,6.77.38,9.1,2.02,4.21,2.98,4.85,10.52,1.27,14.21-.78.8-3.74,2.15-3.69,2.72l7.38,14.11ZM218.49,289.84v6.49c2.33.02,6.67.36,6.82-2.94.17-3.73-4.14-3.63-6.82-3.55Z"/>
  <path class="cls-2" d="M289.87,289.84h-11.74v5.56h11.28s.46.43.46.46v5.56s-.43.46-.46.46h-11.28v8.34h11.74v6.18h-18.23v-32.6s.43-.46.46-.46h17.3s.46.43.46.46v6.03Z"/>
  <path class="cls-2" d="M299.6,283.35c.67.21,4.05,7.62,4.74,8.86.56.36,1.12,2.75,1.75,2.58s5.18-11.43,6.18-11.43h5.87c.19,0,.65.63.33.94l-9.44,18.06v14.06h-6.49v-14.37l-9.45-18.06c-.27-.19.29-.63.33-.63,1.26,0,5.37-.26,6.18,0Z"/>
  <path class="cls-2" d="M150.2,289.84h-5.72s-.46.43-.46.46v26.11h-6.49v-26.57h-5.87v-6.03s.43-.46.46-.46h17.61s.46.43.46.46v6.03Z"/>
  <path class="cls-2" d="M169.36,289.84h-5.72s-.46.43-.46.46v26.11h-6.49v-26.57h-5.87v-6.03s.43-.46.46-.46h17.61s.46.43.46.46v6.03Z"/>
</svg>